<svg viewBox="0 0 120 120" xmlns="http://www.w3.org/2000/svg">
  <defs>
    <linearGradient id="bg" x1="0" y1="0" x2="1" y2="1">
      <stop offset="0" stop-color="#5d3f26"/>
      <stop offset="1" stop-color="#432c17"/>
    </linearGradient>
  </defs>
  <rect width="120" height="120" rx="27" fill="url(#bg)"/>
  <g transform="translate(6,8) scale(0.9)">
    <path d="M56 50 C 45 36, 28 25, 10 22 C 27 33, 39 45, 49 58 C 51 55, 53 52, 56 50 Z"
          fill="#f6efe2" opacity="0.55"/>
    <path d="M103 27 L 92 25 C 86 24, 80 26, 76 30 L 69 36 C 61 42, 54 49, 48 57
             C 40 68, 31 82, 20 100 C 34 85, 46 73, 55 63 C 61 57, 68 51, 75 46
             L 85 39 C 89 36, 92 33, 94 30 Z"
          fill="#f6efe2"/>
    <path d="M64 44 C 59 28, 48 12, 28 3 C 41 20, 50 37, 55 53 C 58 50, 61 47, 64 44 Z"
          fill="#f6efe2"/>
    <circle cx="88" cy="29" r="4" fill="#d65f45"/>
  </g>
</svg>
